<svg height="512" viewBox="0 0 128 128" width="512" xmlns="http://www.w3.org/2000/svg"><g><path d="m84.771 6.306h-41.542c-16.958 0-30.7 13.3-30.7 29.7a7.146 7.146 0 0 0 7.261 7.023h88.43a7.146 7.146 0 0 0 7.261-7.023c-.005-16.406-13.752-29.7-30.71-29.7z" fill="#ef983b"/><rect fill="#8c3f07" height="18.36" rx="7.637" width="91.777" x="18.111" y="43.029"/><path d="m108.215 84.971a7.146 7.146 0 0 1 7.261 7.023c0 16.4-13.747 29.7-30.7 29.7h-41.547c-16.958 0-30.7-13.3-30.7-29.7a7.146 7.146 0 0 1 7.261-7.023z" fill="#ef983b"/><path d="m100.344 61.389s11.018 1.341 21.35 13.318a401.288 401.288 0 0 0 -57.694-4.295 401.288 401.288 0 0 0 -57.694 4.295c10.332-11.977 21.35-13.318 21.35-13.318z" fill="#ffde3e"/><path d="m49.938 61.389s18.526 6.659 30.7 18.047c0 0 5.665-13.4 8.171-18.047z" fill="#ffde3e"/><path d="m84.307 70.976c-1.956 4.416-3.667 8.46-3.667 8.46a74.485 74.485 0 0 0 -12.123-8.992c-1.494-.019-3-.032-4.517-.032a410.346 410.346 0 0 0 -45.807 2.713 7.711 7.711 0 0 0 -.082 1.123v3.087a7.637 7.637 0 0 0 7.637 7.636h76.5a7.637 7.637 0 0 0 7.637-7.636v-3.087a7.687 7.687 0 0 0 -.082-1.122c-6.533-.752-15.37-1.604-25.496-2.15z" fill="#8c3f07"/><g fill="#422002"><path d="m60.288 119.943h-4.5a1.75 1.75 0 0 0 0 3.5h4.5a1.75 1.75 0 0 0 0-3.5z"/><path d="m23.593 98.3a1.75 1.75 0 0 0 -3.328 1.081 23.772 23.772 0 0 0 15.565 14.441 1.75 1.75 0 0 0 .986-3.359 20.235 20.235 0 0 1 -13.223-12.163z"/><path d="m95.111 29.71a1.75 1.75 0 0 0 1.237-2.987l-1.98-1.98a1.75 1.75 0 1 0 -2.475 2.474l1.981 1.983a1.74 1.74 0 0 0 1.237.51z"/><path d="m49.322 15.017-1.549 2.026a1.75 1.75 0 1 0 2.78 2.126l1.55-2.026a1.75 1.75 0 1 0 -2.781-2.126z"/><path d="m28.809 25.555a1.75 1.75 0 0 0 -.386 2.445l.954 1.311a1.75 1.75 0 0 0 2.83-2.059l-.954-1.311a1.749 1.749 0 0 0 -2.444-.386z"/><path d="m64 29.867a1.75 1.75 0 0 0 0 3.5h2.742a1.75 1.75 0 1 0 0-3.5z"/><path d="m75.85 19.116a1.752 1.752 0 0 0 .384-.043l2.43-.545a1.75 1.75 0 0 0 -.766-3.415l-2.43.545a1.75 1.75 0 0 0 .382 3.458z"/><path d="m123.019 73.564a43.892 43.892 0 0 0 -15.766-11.883 9.38 9.38 0 0 0 4.386-7.929v-3.086a9.346 9.346 0 0 0 -2.161-5.984 8.859 8.859 0 0 0 7.748-8.676c0-17.341-14.559-31.449-32.455-31.449h-4.578a1.75 1.75 0 0 0 0 3.5h4.578c15.966 0 28.955 12.538 28.955 27.949a5.4 5.4 0 0 1 -5.511 5.273h-88.43a5.4 5.4 0 0 1 -5.511-5.273c0-15.411 12.989-27.949 28.955-27.949h28.014a1.75 1.75 0 0 0 0-3.5h-28.014c-17.9 0-32.455 14.108-32.455 31.449a8.859 8.859 0 0 0 7.748 8.676 9.346 9.346 0 0 0 -2.161 5.984v3.086a9.38 9.38 0 0 0 4.386 7.929 43.892 43.892 0 0 0 -15.766 11.883 1.75 1.75 0 0 0 1.325 2.893 1.685 1.685 0 0 0 .282-.023c.1-.016 3.716-.6 9.773-1.325v2.225a9.346 9.346 0 0 0 2.161 5.984 8.859 8.859 0 0 0 -7.748 8.676c0 17.341 14.559 31.449 32.455 31.449h3.9a1.75 1.75 0 0 0 0-3.5h-3.9c-15.966 0-28.955-12.538-28.955-27.949a5.4 5.4 0 0 1 5.511-5.273h88.43a5.4 5.4 0 0 1 5.511 5.273c0 15.411-12.989 27.949-28.955 27.949h-16.245a1.75 1.75 0 0 0 0 3.5h16.245c17.9 0 32.455-14.108 32.455-31.449a8.859 8.859 0 0 0 -7.748-8.676 9.346 9.346 0 0 0 2.161-5.984v-2.227c6.073.731 9.7 1.315 9.773 1.327a1.685 1.685 0 0 0 .282.023 1.75 1.75 0 0 0 1.325-2.893zm-103.158-22.898a5.893 5.893 0 0 1 5.887-5.887h76.5a5.893 5.893 0 0 1 5.887 5.887v3.086a5.894 5.894 0 0 1 -5.887 5.887h-76.5a5.894 5.894 0 0 1 -5.887-5.887zm60.128 25.834a96.767 96.767 0 0 0 -21.421-13.361h27.4c-1.968 4.086-4.585 10.116-5.979 13.361zm-52.205-13.361h21.84a114.864 114.864 0 0 1 12.176 5.53 416.284 416.284 0 0 0 -43.663 2.709 1.687 1.687 0 0 0 -.2.023c-2.689.31-5 .6-6.839.849 8.161-7.603 15.889-8.987 16.686-9.111zm80.355 14.2a5.893 5.893 0 0 1 -5.887 5.887h-76.5a5.893 5.893 0 0 1 -5.887-5.887v-2.639a408.692 408.692 0 0 1 44.135-2.538c1.346 0 2.679.011 4 .026a71.9 71.9 0 0 1 11.441 8.526 1.746 1.746 0 0 0 1.2.472 1.8 1.8 0 0 0 .359-.038 1.75 1.75 0 0 0 1.248-1.03c.028-.067 1.45-3.425 3.168-7.328 8.819.5 16.641 1.233 22.719 1.911zm1.861-5.949c-.038 0-.075-.012-.114-.013-6.019-.692-13.929-1.463-22.943-2 1.057-2.347 2.109-4.611 2.931-6.233h10.345c.849.134 8.553 1.536 16.689 9.11-1.86-.254-4.195-.554-6.908-.864z"/></g></g></svg>